<svg width="54" height="54" viewBox="0 0 54 54" fill="none" xmlns="http://www.w3.org/2000/svg">
<rect width="54" height="54" rx="27" fill="#F5F5F5"/>
<path d="M21 18.9681L21 37.0254C21.0006 37.2083 21.0509 37.3875 21.1454 37.5438C21.2399 37.7001 21.3752 37.8275 21.5366 37.9125C21.698 37.9974 21.8794 38.0365 22.0613 38.0257C22.2432 38.0149 22.4188 37.9545 22.569 37.8511L35.569 28.8224C36.108 28.4482 36.108 27.5474 35.569 27.1722L22.569 18.1435C22.4191 18.039 22.2434 17.9777 22.0612 17.9663C21.879 17.9549 21.6971 17.9938 21.5354 18.0788C21.3737 18.1638 21.2383 18.2916 21.1439 18.4484C21.0495 18.6052 20.9997 18.785 21 18.9681Z" fill="#7EC98F"/>
</svg>
