<svg width="54" height="54" viewBox="0 0 54 54" fill="none" xmlns="http://www.w3.org/2000/svg">
<rect width="54" height="54" rx="27" fill="#D9D9D9"/>
<path d="M31 18L31 36C30.9994 36.1822 30.9492 36.3609 30.8546 36.5167C30.7601 36.6725 30.6248 36.7995 30.4635 36.8842C30.3021 36.9688 30.1207 37.0079 29.9387 36.9971C29.7568 36.9863 29.5813 36.9261 29.431 36.823L16.431 27.823C15.892 27.45 15.892 26.552 16.431 26.178L29.431 17.178C29.581 17.0738 29.7566 17.0127 29.9388 17.0014C30.121 16.99 30.3029 17.0288 30.4646 17.1135C30.6263 17.1982 30.7618 17.3257 30.8562 17.482C30.9505 17.6382 31.0003 17.8174 31 18Z" fill="#F5F5F5"/>
</svg>
