<svg width="54" height="54" viewBox="0 0 54 54" fill="none" xmlns="http://www.w3.org/2000/svg">
<rect width="54" height="54" rx="27" fill="#7EC98F"/>
<path d="M31 18.9681L31 37.0254C30.9994 37.2083 30.9491 37.3875 30.8546 37.5438C30.7601 37.7001 30.6248 37.8275 30.4634 37.9125C30.302 37.9974 30.1206 38.0365 29.9387 38.0257C29.7568 38.0149 29.5812 37.9545 29.431 37.8511L16.431 28.8224C15.892 28.4482 15.892 27.5474 16.431 27.1722L29.431 18.1435C29.5809 18.039 29.7566 17.9777 29.9388 17.9663C30.121 17.9549 30.3029 17.9938 30.4646 18.0788C30.6263 18.1638 30.7617 18.2916 30.8561 18.4484C30.9505 18.6052 31.0003 18.785 31 18.9681Z" fill="#F5F5F5"/>
</svg>
