<svg width="54" height="54" viewBox="0 0 54 54" fill="none" xmlns="http://www.w3.org/2000/svg">
<rect width="54" height="54" rx="27" fill="#D9D9D9"/>
<path d="M21 18L21 36C21.0006 36.1822 21.0508 36.3609 21.1454 36.5167C21.2399 36.6725 21.3752 36.7995 21.5365 36.8842C21.6979 36.9688 21.8793 37.0079 22.0613 36.9971C22.2432 36.9863 22.4187 36.9261 22.569 36.823L35.569 27.823C36.108 27.45 36.108 26.552 35.569 26.178L22.569 17.178C22.419 17.0738 22.2434 17.0127 22.0612 17.0014C21.879 16.99 21.6971 17.0288 21.5354 17.1135C21.3737 17.1982 21.2382 17.3257 21.1438 17.482C21.0495 17.6382 20.9997 17.8174 21 18Z" fill="#F5F5F5"/>
</svg>
