<svg width="64" height="8" viewBox="0 0 64 8" fill="none" xmlns="http://www.w3.org/2000/svg">
<path d="M63.3536 4.35355C63.5488 4.15829 63.5488 3.8417 63.3536 3.64644L60.1716 0.464461C59.9763 0.269199 59.6597 0.269199 59.4645 0.464461C59.2692 0.659723 59.2692 0.976306 59.4645 1.17157L62.2929 3.99999L59.4645 6.82842C59.2692 7.02368 59.2692 7.34027 59.4645 7.53553C59.6597 7.73079 59.9763 7.73079 60.1716 7.53553L63.3536 4.35355ZM4.37114e-08 4.5L63 4.49999L63 3.49999L-4.37114e-08 3.5L4.37114e-08 4.5Z" fill="black"/>
<path d="M63.3536 4.35355C63.5488 4.15829 63.5488 3.8417 63.3536 3.64644L60.1716 0.464461C59.9763 0.269199 59.6597 0.269199 59.4645 0.464461C59.2692 0.659723 59.2692 0.976306 59.4645 1.17157L62.2929 3.99999L59.4645 6.82842C59.2692 7.02368 59.2692 7.34027 59.4645 7.53553C59.6597 7.73079 59.9763 7.73079 60.1716 7.53553L63.3536 4.35355ZM4.37114e-08 4.5L63 4.49999L63 3.49999L-4.37114e-08 3.5L4.37114e-08 4.5Z" fill="#8770C1"/>
</svg>
