<svg width="24" height="24" viewBox="0 0 24 24" fill="none" xmlns="http://www.w3.org/2000/svg">
<g clip-path="url(#clip0_93_155)">
<path fill-rule="evenodd" clip-rule="evenodd" d="M19.495 3.13312C19.7164 2.99974 19.981 2.9573 20.233 3.01473C20.4851 3.07215 20.7051 3.22497 20.847 3.44112L21.837 4.95112C21.9663 5.14847 22.0217 5.3852 21.9933 5.61944C21.9649 5.85368 21.8547 6.07034 21.682 6.23112L21.679 6.23512L21.665 6.24812L21.608 6.30112L21.383 6.51612C20.138 7.72372 18.9307 8.96965 17.763 10.2521C15.566 12.6681 12.957 15.8301 11.201 18.8981C10.711 19.7541 9.51397 19.9381 8.80397 19.1991L2.31897 12.4611C2.22604 12.3645 2.15347 12.2502 2.10559 12.125C2.05771 11.9998 2.03548 11.8663 2.04024 11.7323C2.045 11.5984 2.07664 11.4667 2.13329 11.3452C2.18993 11.2237 2.27042 11.1149 2.36997 11.0251L4.32997 9.25712C4.50222 9.10183 4.72308 9.01123 4.95475 9.00084C5.18643 8.99044 5.41451 9.06089 5.59997 9.20012L8.90897 11.6811C14.077 6.58412 17.009 4.62812 19.495 3.13312Z" fill="white"/>
</g>
<defs>
<clipPath id="clip0_93_155">
<rect width="24" height="24" fill="white"/>
</clipPath>
</defs>
</svg>
