<svg width="33" height="60" viewBox="0 0 33 60" fill="none" xmlns="http://www.w3.org/2000/svg">
<path d="M11.1392 25.925L11.0777 25.9113L9.48345 25.5212H6.18552L6.1513 25.6376L5.94604 26.3971L6.23342 27.6494L6.51394 26.5271H13.6024L11.1392 25.925ZM26.5821 25.5212L25.9732 26.5271L23.5029 30.585L23.2499 31.0024L20.5472 35.457L20.3215 35.8402L19.6648 36.9215L6.22656 59.0515H10.154L10.7629 58.0454L23.5921 36.9215L24.8374 34.8687L30.5094 25.5212H26.5821ZM6.32237 25.5212V26.5271H28.9768V25.5212H6.32237ZM9.8666 58.0454V59.0515H32.521V58.0454H9.8666ZM30.4135 47.7469L29.36 48.226C29.5514 48.4174 29.7295 48.6981 29.8869 49.0676C30.044 49.4372 30.1948 49.8203 30.3383 50.2172C30.4821 50.614 30.6053 51.0178 30.7011 51.4147C30.7967 51.8115 30.8583 52.1265 30.8925 52.3452C31.1459 53.6249 31.0979 54.6446 30.7487 55.411C30.3932 56.1774 29.9072 56.752 29.2847 57.1352C28.6619 57.5184 27.9708 57.7717 27.2045 57.8813C26.4383 57.9908 25.7472 58.0454 25.1453 58.0454L29.2641 59.0515H33L30.4135 47.7469Z" fill="#8770C1"/>
<path d="M24.5224 33.9996L23.626 31.0024L23.5028 30.585L22.2918 26.5272L21.9909 25.5213L14.6559 0.948486C14.4301 1.68752 14.0743 2.35128 13.5817 2.93976C13.0822 3.52825 12.5143 4.00041 11.878 4.3494L12.138 5.23213L18.1386 25.5213L18.1591 25.5828L18.4397 26.5272L20.5472 33.6643C20.7456 34.3963 20.7522 34.9986 20.5472 35.457C20.5059 35.5802 20.4376 35.6967 20.3554 35.7992C20.3418 35.8129 20.3348 35.8265 20.3211 35.8402L19.6644 36.9215H23.5917L24.837 34.8687C24.7275 34.6087 24.625 34.3144 24.5224 33.9996ZM3.87951 34.1433C3.84529 34.2458 3.81793 34.3487 3.78371 34.4443L3.77688 34.4649C3.55109 35.1354 3.29793 35.6215 3.01738 35.9431C2.69581 36.3126 2.26477 36.4904 1.72423 36.4904C1.43685 36.4904 1.1837 36.4561 0.957903 36.3742C0.732109 36.292 0.492633 36.1758 0.239476 36.0113L0 36.8736H4.31056L4.43373 36.3945L5.01531 34.0954L5.12479 33.6643L3.87951 34.1433ZM7.9027 36.0113C7.77271 36.0799 7.58113 36.1758 7.32794 36.2989C7.07478 36.4288 6.7669 36.4904 6.41794 36.4904C5.8774 36.4904 5.44636 36.2989 5.12479 35.9158C4.84424 35.5872 4.78951 35.0875 4.94004 34.417L4.9674 34.3144C4.97426 34.2801 4.98794 34.2458 4.99477 34.2049C5.00845 34.1707 5.01531 34.1296 5.02899 34.0954H5.01531L3.87951 34.1433L3.46897 35.6008L3.11318 36.8736H8.14217L7.9027 36.0113ZM11.878 4.3494L6.18532 25.5213L6.1511 25.6376L5.94585 26.3972L3.78371 34.4443L3.77688 34.4649L3.46897 35.6008L3.25686 36.3945H4.45423L4.94004 34.417L4.9674 34.3144C4.97426 34.2801 4.98794 34.2458 4.99477 34.2049L5.02213 34.0954L5.12479 33.6643L6.60951 27.6494L6.89007 26.5272L6.98584 26.1303L7.13637 25.5213L12.138 5.23213L12.357 4.3494H11.878ZM18.1591 25.5828L11.4538 25.9113L11.139 25.925L6.98584 26.1303L6.75322 26.144V26.5272H19.3498V25.5213L18.1591 25.5828Z" fill="#8770C1"/>
</svg>
