<svg width="194" height="44" viewBox="0 0 194 44" fill="none" xmlns="http://www.w3.org/2000/svg">
<path d="M11.1736 24.3454L11.3323 23.7422C11.5016 23.848 11.6603 23.9326 11.8085 23.9961C11.9566 24.0596 12.1365 24.0914 12.3481 24.0914C12.856 24.0914 13.2369 23.9326 13.4908 23.6152C13.7448 23.2765 13.7871 22.8003 13.6178 22.1866L7.87233 2.75767C8.29558 2.52487 8.66591 2.21799 8.98335 1.83703C9.32194 1.43491 9.56531 0.990443 9.71344 0.503662L16.2525 22.4088C16.4218 22.9168 16.5805 23.3295 16.7287 23.6469C16.898 23.9432 17.1942 24.0914 17.6175 24.0914C17.8079 24.0914 17.9772 24.0596 18.1254 23.9961C18.2947 23.9326 18.464 23.848 18.6333 23.7422L18.792 24.3454H11.1736ZM0 24.3136L0.158716 23.7422C0.328014 23.848 0.48673 23.9326 0.634865 23.9961C0.783001 24.0385 0.952298 24.0596 1.14276 24.0596C1.50252 24.0596 1.78821 23.9432 1.99983 23.7104C2.21145 23.4564 2.40191 23.0543 2.57121 22.504L3.39653 22.1866L2.8569 24.3136H1.68239H0ZM2.95213 23.9961H2.15854L7.87233 2.75767H8.18976L2.95213 23.9961ZM5.39636 24.3136H2.06331L2.57121 22.504L3.33304 22.4723C3.16375 23.0226 3.18491 23.4247 3.39653 23.6787C3.60815 23.9326 3.89384 24.0596 4.2536 24.0596C4.48638 24.0596 4.68742 24.0173 4.85672 23.9326C5.02602 23.848 5.15299 23.7845 5.23764 23.7422L5.39636 24.3136ZM4.4758 17.4563V17.2024L12.8242 16.7897V17.4563H4.4758Z" fill="white"/>
<path d="M20.0739 8.44067H27.5335L27.3748 9.01212C27.2055 8.9063 27.0468 8.83222 26.8987 8.78989C26.7505 8.72639 26.5812 8.69465 26.3908 8.69465C25.9675 8.69465 25.6395 8.8428 25.4067 9.1391C25.1739 9.41424 25.0575 9.80578 25.0575 10.3137V22.4409C25.0575 22.9489 25.1739 23.351 25.4067 23.6473C25.6395 23.9224 25.9675 24.06 26.3908 24.06C26.5812 24.06 26.7505 24.0388 26.8987 23.9965C27.0468 23.933 27.2055 23.8483 27.3748 23.7425L27.5335 24.314H20.0739L20.2326 23.7425C20.4019 23.8483 20.5606 23.933 20.7087 23.9965C20.8569 24.0388 21.0262 24.06 21.2166 24.06C21.6399 24.06 21.9679 23.9224 22.2007 23.6473C22.4334 23.351 22.5498 22.9489 22.5498 22.4409V10.7582V10.3137C22.5498 9.80578 22.4334 9.41424 22.2007 9.1391C21.9679 8.8428 21.6399 8.69465 21.2166 8.69465C21.0262 8.69465 20.8569 8.72639 20.7087 8.78989C20.5606 8.83222 20.4019 8.9063 20.2326 9.01212L20.0739 8.44067ZM32.1998 24.314V8.44067H34.0726H34.7075V24.314H32.1998ZM32.1998 24.314V8.44067H34.7075V24.314H32.1998ZM24.6766 16.1551V15.4884H32.4855V16.1551H24.6766ZM29.7238 24.314L29.8825 23.7425C30.0518 23.8483 30.2105 23.933 30.3587 23.9965C30.5068 24.0388 30.6761 24.06 30.8666 24.06C31.2263 24.06 31.5332 23.9436 31.7871 23.7108C32.0622 23.4568 32.1998 23.0335 32.1998 22.4409C32.1998 22.1446 32.3162 22.0176 32.549 22.06C32.8029 22.1023 33.0992 22.1764 33.4378 22.2822C33.7975 22.1764 34.0938 22.1023 34.3266 22.06C34.5805 22.0176 34.7075 22.1446 34.7075 22.4409C34.7075 23.0335 34.8345 23.4568 35.0884 23.7108C35.3635 23.9436 35.681 24.06 36.0407 24.06C36.2312 24.06 36.4005 24.0388 36.5486 23.9965C36.6967 23.933 36.8555 23.8483 37.0248 23.7425L37.1835 24.314H29.7238ZM29.7238 8.44067H37.1835L37.0248 9.01212C36.8555 8.9063 36.6967 8.83222 36.5486 8.78989C36.4005 8.72639 36.2312 8.69465 36.0407 8.69465C35.681 8.69465 35.3635 8.82164 35.0884 9.07561C34.8345 9.30842 34.7075 9.72112 34.7075 10.3137C34.7075 10.61 34.5805 10.737 34.3266 10.6947C34.0938 10.6524 33.8081 10.5783 33.4695 10.4725C33.1098 10.5783 32.8029 10.6524 32.549 10.6947C32.3162 10.737 32.1998 10.61 32.1998 10.3137C32.1998 9.80578 32.0834 9.41424 31.8506 9.1391C31.6178 8.8428 31.2898 8.69465 30.8666 8.69465C30.6761 8.69465 30.5068 8.72639 30.3587 8.78989C30.2105 8.83222 30.0518 8.9063 29.8825 9.01212L29.7238 8.44067Z" fill="white"/>
<path d="M37.8068 8.44067H45.2664L45.1077 9.01212C44.9384 8.9063 44.7797 8.83222 44.6316 8.78989C44.4834 8.72639 44.3141 8.69465 44.1237 8.69465C43.7004 8.69465 43.3724 8.8428 43.1396 9.1391C42.9068 9.41424 42.7905 9.80578 42.7905 10.3137V22.4409C42.7905 22.9489 42.9068 23.351 43.1396 23.6473C43.3724 23.9224 43.7004 24.06 44.1237 24.06C44.3141 24.06 44.4834 24.0388 44.6316 23.9965C44.7797 23.933 44.9384 23.8483 45.1077 23.7425L45.2664 24.314H37.8068L37.9655 23.7425C38.1348 23.8483 38.2935 23.933 38.4416 23.9965C38.5898 24.0388 38.7591 24.06 38.9495 24.06C39.3728 24.06 39.7008 23.9224 39.9336 23.6473C40.1663 23.351 40.2827 22.9489 40.2827 22.4409V10.7582V10.3137C40.2827 9.80578 40.1663 9.41424 39.9336 9.1391C39.7008 8.8428 39.3728 8.69465 38.9495 8.69465C38.7591 8.69465 38.5898 8.72639 38.4416 8.78989C38.2935 8.83222 38.1348 8.9063 37.9655 9.01212L37.8068 8.44067ZM49.9327 24.314V8.44067H51.8055H52.4404V24.314H49.9327ZM49.9327 24.314V8.44067H52.4404V24.314H49.9327ZM42.4095 16.1551V15.4884H50.2184V16.1551H42.4095ZM47.4567 24.314L47.6154 23.7425C47.7847 23.8483 47.9434 23.933 48.0916 23.9965C48.2397 24.0388 48.409 24.06 48.5995 24.06C48.9592 24.06 49.2661 23.9436 49.52 23.7108C49.7951 23.4568 49.9327 23.0335 49.9327 22.4409C49.9327 22.1446 50.0491 22.0176 50.2819 22.06C50.5358 22.1023 50.8321 22.1764 51.1707 22.2822C51.5304 22.1764 51.8267 22.1023 52.0595 22.06C52.3134 22.0176 52.4404 22.1446 52.4404 22.4409C52.4404 23.0335 52.5674 23.4568 52.8213 23.7108C53.0964 23.9436 53.4139 24.06 53.7736 24.06C53.9641 24.06 54.1334 24.0388 54.2815 23.9965C54.4297 23.933 54.5884 23.8483 54.7577 23.7425L54.9164 24.314H47.4567ZM47.4567 8.44067H54.9164L54.7577 9.01212C54.5884 8.9063 54.4297 8.83222 54.2815 8.78989C54.1334 8.72639 53.9641 8.69465 53.7736 8.69465C53.4139 8.69465 53.0964 8.82164 52.8213 9.07561C52.5674 9.30842 52.4404 9.72112 52.4404 10.3137C52.4404 10.61 52.3134 10.737 52.0595 10.6947C51.8267 10.6524 51.541 10.5783 51.2024 10.4725C50.8427 10.5783 50.5358 10.6524 50.2819 10.6947C50.0491 10.737 49.9327 10.61 49.9327 10.3137C49.9327 9.80578 49.8163 9.41424 49.5835 9.1391C49.3507 8.8428 49.0227 8.69465 48.5995 8.69465C48.409 8.69465 48.2397 8.72639 48.0916 8.78989C47.9434 8.83222 47.7847 8.9063 47.6154 9.01212L47.4567 8.44067Z" fill="white"/>
<path d="M62.9991 11.3612H60.4914C60.8088 10.3453 61.359 9.57278 62.142 9.04367C62.9462 8.4934 63.8562 8.21826 64.872 8.21826C65.6338 8.21826 66.2898 8.39815 66.84 8.75795C67.3903 9.11774 67.8452 9.57279 68.205 10.1231C68.5647 10.6522 68.8293 11.2448 68.9986 11.9009C69.1679 12.5358 69.2525 13.1284 69.2525 13.6787C69.2525 13.8057 69.115 13.9856 68.8399 14.2184C68.5859 14.43 68.3002 14.5887 67.9828 14.6946C67.6865 14.8004 67.4008 14.7898 67.1257 14.6628C66.8718 14.5358 66.7448 14.1866 66.7448 13.6152C66.7448 13.0437 66.7342 12.4829 66.7131 11.9326C66.6919 11.3612 66.6178 10.8532 66.4909 10.4088C66.3639 9.96431 66.1734 9.60453 65.9195 9.32939C65.6655 9.03309 65.3164 8.88494 64.872 8.88494C64.491 8.88494 64.1736 8.95901 63.9197 9.10716C63.6869 9.25531 63.4964 9.45638 63.3483 9.71035C63.2213 9.94316 63.1261 10.2077 63.0626 10.504C63.0203 10.8003 62.9991 11.086 62.9991 11.3612ZM67.9828 24.3455L67.8558 22.2502C68.2156 22.1444 68.5436 22.0704 68.8399 22.028C69.1361 21.9857 69.2843 22.1127 69.2843 22.409C69.2843 22.9381 69.4007 23.3508 69.6334 23.6471C69.8662 23.9434 70.1942 24.0915 70.6175 24.0915C70.8291 24.0915 71.009 24.0598 71.1571 23.9963C71.3053 23.9328 71.464 23.8482 71.6333 23.7423L71.7602 24.3455H67.9828ZM66.7765 24.3455V24.1233L66.7448 13.6152L69.2525 13.6787L69.2843 23.7741V24.3455H66.7765ZM55.5394 18.4089C55.5394 17.5835 55.6876 16.811 55.9838 16.0914C56.3013 15.3718 56.7245 14.7475 57.2536 14.2184C57.8038 13.6681 58.4386 13.2448 59.1582 12.9485C59.8777 12.631 60.6501 12.4723 61.4754 12.4723C62.3007 12.4723 63.0732 12.631 63.7927 12.9485C64.5122 13.2448 65.1365 13.6681 65.6655 14.2184C66.2157 14.7475 66.639 15.3718 66.9353 16.0914C67.2527 16.811 67.4114 17.5835 67.4114 18.4089C67.4114 19.2343 67.2527 20.0068 66.9353 20.7264C66.639 21.446 66.2157 22.0809 65.6655 22.6312C65.1365 23.1603 64.5122 23.5836 63.7927 23.9011C63.0732 24.1974 62.3007 24.3455 61.4754 24.3455C60.6501 24.3455 59.8777 24.1974 59.1582 23.9011C58.4386 23.5836 57.8038 23.1603 57.2536 22.6312C56.7245 22.0809 56.3013 21.446 55.9838 20.7264C55.6876 20.0068 55.5394 19.2343 55.5394 18.4089ZM58.0472 18.3772C58.0472 18.9698 58.153 19.5412 58.3646 20.0915C58.5974 20.6206 58.9148 21.0862 59.3169 21.4883C59.719 21.8693 60.1845 22.1762 60.7136 22.409C61.2426 22.6418 61.8034 22.7582 62.396 22.7582C63.0097 22.7582 63.5705 22.6418 64.0784 22.409C64.6074 22.1762 65.073 21.8693 65.4751 21.4883C65.8772 21.0862 66.184 20.6206 66.3956 20.0915C66.6284 19.5412 66.7448 18.9698 66.7448 18.3772C66.7448 17.7846 66.6284 17.2237 66.3956 16.6946C66.184 16.1655 65.8772 15.7105 65.4751 15.3295C65.073 14.9274 64.6074 14.6205 64.0784 14.4088C63.5705 14.176 63.0097 14.0596 62.396 14.0596C61.8034 14.0596 61.2426 14.176 60.7136 14.4088C60.1845 14.6205 59.719 14.9274 59.3169 15.3295C58.9148 15.7105 58.5974 16.1655 58.3646 16.6946C58.153 17.2237 58.0472 17.7846 58.0472 18.3772Z" fill="white"/>
<path d="M83.6021 19.266C84.1947 20.1337 84.8401 20.885 85.5385 21.52C86.258 22.1337 86.9987 22.5994 87.7605 22.9168C88.5223 23.2131 89.2842 23.3401 90.046 23.2978C90.829 23.2343 91.5697 22.9697 92.268 22.5041C92.9664 22.0385 93.4743 21.4671 93.7917 20.7898C94.1091 20.0914 94.2573 19.34 94.2361 18.5358C94.2361 17.7315 94.0774 16.885 93.76 15.9961C93.4425 15.1072 92.9876 14.2183 92.395 13.3294C91.8025 12.4616 91.157 11.7209 90.4587 11.1071C89.7603 10.4933 89.0408 10.0489 88.3001 9.77374C87.5594 9.47744 86.8082 9.36104 86.0464 9.42453C85.3057 9.46686 84.5862 9.72083 83.8878 10.1864C83.782 10.2499 83.6868 10.324 83.6021 10.4087C83.5175 10.4722 83.4328 10.5568 83.3482 10.6626L83.4434 9.77374C84.0994 9.32929 84.8084 8.98007 85.5702 8.7261C86.3532 8.47213 87.168 8.34514 88.0144 8.34514C89.1149 8.34514 90.1518 8.55679 91.1253 8.98008C92.1199 9.40337 92.977 9.98538 93.6965 10.7261C94.4372 11.4457 95.0191 12.2923 95.4424 13.2659C95.8656 14.2394 96.0772 15.2765 96.0772 16.377C96.0772 17.4776 95.8656 18.5146 95.4424 19.4882C95.0191 20.4617 94.4372 21.3189 93.6965 22.0597C92.977 22.7793 92.1199 23.3507 91.1253 23.774C90.1518 24.1973 89.1149 24.4089 88.0144 24.4089C86.9987 24.4089 86.0358 24.2184 85.1258 23.8375C84.2158 23.4565 83.4011 22.938 82.6816 22.2819C81.9621 21.6046 81.3695 20.8321 80.9039 19.9644C80.4384 19.0755 80.1421 18.1442 80.0151 17.1707L82.5229 17.4564C82.6498 17.7527 82.798 18.0384 82.9673 18.3136C83.1577 18.5887 83.3693 18.9062 83.6021 19.266ZM84.9988 2.09106H88.3001C88.9985 2.09106 89.6968 2.21805 90.3952 2.47202C91.0935 2.70483 91.6967 3.04347 92.2045 3.48792C92.7124 3.91121 93.0722 4.41916 93.2838 5.01176C93.4954 5.60436 93.4425 6.26046 93.1251 6.98005C92.977 7.33984 92.7442 7.6573 92.4268 7.93244C92.1305 8.18641 91.7919 8.39806 91.411 8.56737C91.03 8.71553 90.6385 8.83193 90.2365 8.91659C89.8344 8.98008 89.4429 9.00124 89.062 8.98008C88.5541 8.95892 88.2049 8.91659 88.0144 8.8531C87.8451 8.78961 87.7499 8.71552 87.7288 8.63087C87.7076 8.56737 87.7711 8.48271 87.9192 8.37689C88.4694 8.37689 88.935 8.28166 89.3159 8.09118C89.6968 7.9007 90.0037 7.65731 90.2365 7.36101C90.4904 7.04354 90.6703 6.69432 90.7761 6.31336C90.8819 5.9324 90.9348 5.56202 90.9348 5.20223C90.9348 4.96942 90.8819 4.71545 90.7761 4.44031C90.6915 4.14401 90.5433 3.87946 90.3317 3.64665C90.1412 3.39267 89.8767 3.18104 89.5381 3.01173C89.1995 2.84241 88.7869 2.75775 88.3001 2.75775C87.7711 2.75775 87.2843 2.83183 86.8399 2.97998C86.3955 3.10697 85.9723 3.28686 85.5702 3.51967L84.9988 2.09106ZM87.4431 2.09106L88.3954 2.75775C87.5912 2.75775 86.9775 2.9059 86.5543 3.2022C86.131 3.47733 85.9194 3.9218 85.9194 4.53556C85.9194 4.83186 85.9935 5.17049 86.1416 5.55144C86.3109 5.9324 86.5119 6.2393 86.7447 6.47211L86.0464 6.78956L84.9671 2.09106H87.4431ZM82.4276 19.1707L80.0151 17.1707L87.0621 13.1071L87.2843 13.8373C87.115 13.8373 86.9034 13.8796 86.6495 13.9643C86.3955 14.0489 86.1416 14.1548 85.8876 14.2817C85.6337 14.3876 85.3903 14.504 85.1575 14.631C84.9248 14.758 84.7449 14.8638 84.6179 14.9484C83.8772 15.414 83.4117 15.922 83.2212 16.4723C83.0519 17.0225 83.0307 17.5622 83.1577 18.0913C83.3059 18.6205 83.5386 19.1178 83.8561 19.5834C84.1947 20.0491 84.5015 20.43 84.7766 20.7263L82.4276 19.1707Z" fill="white"/>
<path d="M108.82 19.5202C108.778 18.081 108.598 17.0758 108.28 16.5043C107.963 15.9117 107.519 15.6154 106.947 15.6154L106.915 15.044C107.296 15.044 107.73 15.1392 108.217 15.3297C108.725 15.499 109.201 15.7636 109.645 16.1234C110.09 16.462 110.471 16.8958 110.788 17.425C111.127 17.9329 111.317 18.5255 111.36 19.2028C111.36 20.8959 110.682 22.1764 109.328 23.0441C107.995 23.8907 106.207 24.314 103.964 24.314H102.345C102.345 24.314 102.334 24.2611 102.313 24.1552C102.313 24.0282 102.303 23.8907 102.281 23.7425C102.26 23.5732 102.25 23.4251 102.25 23.2981C102.25 23.1499 102.281 23.0441 102.345 22.9806C102.345 23.4039 102.482 23.6684 102.758 23.7743C103.033 23.8801 103.287 23.933 103.519 23.933C104.662 23.933 105.583 23.8166 106.281 23.5838C106.979 23.351 107.519 23.0335 107.899 22.6314C108.28 22.2293 108.524 21.7637 108.63 21.2346C108.757 20.6843 108.82 20.1128 108.82 19.5202ZM108.757 12.2185C108.757 12.8535 108.63 13.3931 108.376 13.8376C108.122 14.282 107.857 14.7159 107.582 15.1392C107.561 15.1815 107.519 15.2027 107.455 15.2027C107.392 15.1815 107.328 15.1604 107.265 15.1392C107.18 15.118 107.095 15.0863 107.011 15.044C107.307 14.6842 107.561 14.282 107.773 13.8376C107.984 13.3931 108.09 12.8535 108.09 12.2185C108.09 10.991 107.667 10.1232 106.82 9.6153C105.995 9.10735 104.958 8.85339 103.71 8.85339C103.223 8.85339 102.874 8.92746 102.662 9.07561C102.451 9.2026 102.345 9.50948 102.345 9.99626C102.303 9.69996 102.271 9.4354 102.25 9.20259C102.25 9.01211 102.239 8.8428 102.218 8.69465C102.218 8.52534 102.228 8.44067 102.25 8.44067H104.027C104.45 8.44067 104.927 8.49359 105.456 8.59942C106.005 8.70524 106.524 8.90629 107.011 9.20259C107.497 9.47773 107.91 9.85869 108.249 10.3455C108.587 10.8323 108.757 11.4566 108.757 12.2185ZM107.011 15.044L107.074 15.6154C106.799 15.6154 106.482 15.6472 106.122 15.7106C105.763 15.753 105.435 15.8694 105.138 16.0599C104.842 16.2292 104.609 16.4937 104.44 16.8535C104.292 17.2133 104.271 17.7001 104.376 18.3139C104.398 18.4197 104.429 18.5678 104.472 18.7583C104.535 18.9488 104.599 19.1393 104.662 19.3298C104.726 19.5202 104.789 19.7107 104.853 19.9012C104.937 20.0705 105.022 20.1975 105.107 20.2821L104.599 20.5044L103.361 15.044H107.011ZM99.8371 24.314V8.44067H102.345V23.7743V24.314H99.8371ZM97.5199 9.01212L97.3611 8.44067H100.599V10.3137H99.8371C99.8371 9.80578 99.7207 9.41424 99.4879 9.1391C99.2552 8.8428 98.9271 8.69465 98.5039 8.69465C98.3134 8.69465 98.1442 8.72639 97.996 8.78989C97.8479 8.83222 97.6892 8.9063 97.5199 9.01212ZM97.3611 24.314L97.5199 23.7425C97.6892 23.8483 97.8479 23.933 97.996 23.9965C98.1442 24.0388 98.3134 24.06 98.5039 24.06C98.9483 24.06 99.2763 23.8907 99.4879 23.5521C99.7207 23.1923 99.8371 22.8219 99.8371 22.4409H102.345V24.314H97.3611ZM97.5199 9.01212L97.3611 8.44067H100.599V10.3137H99.8371C99.8371 9.80578 99.7207 9.41424 99.4879 9.1391C99.2552 8.8428 98.9271 8.69465 98.5039 8.69465C98.3134 8.69465 98.1442 8.72639 97.996 8.78989C97.8479 8.83222 97.6892 8.9063 97.5199 9.01212ZM99.8371 22.4409L97.3611 24.314L97.5199 23.7425C97.6892 23.8483 97.8479 23.933 97.996 23.9965C98.1442 24.0388 98.3134 24.06 98.5039 24.06C98.9483 24.06 99.2763 23.8907 99.4879 23.5521C99.7207 23.1923 99.8371 22.8219 99.8371 22.4409ZM97.5199 9.01212L97.3611 8.44067H100.599V10.3137H99.8371C99.8371 9.80578 99.7207 9.41424 99.4879 9.1391C99.2552 8.8428 98.9271 8.69465 98.5039 8.69465C98.3134 8.69465 98.1442 8.72639 97.996 8.78989C97.8479 8.83222 97.6892 8.9063 97.5199 9.01212ZM99.8371 22.4409L97.3611 24.314L97.5199 23.7425C97.6892 23.8483 97.8479 23.933 97.996 23.9965C98.1442 24.0388 98.3134 24.06 98.5039 24.06C98.9483 24.06 99.2763 23.8907 99.4879 23.5521C99.7207 23.1923 99.8371 22.8219 99.8371 22.4409ZM97.5199 9.01212L97.3611 8.44067H100.599V10.3137H99.8371C99.8371 9.80578 99.7207 9.41424 99.4879 9.1391C99.2552 8.8428 98.9271 8.69465 98.5039 8.69465C98.3134 8.69465 98.1442 8.72639 97.996 8.78989C97.8479 8.83222 97.6892 8.9063 97.5199 9.01212ZM99.8371 22.4409L97.3611 24.314L97.5199 23.7425C97.6892 23.8483 97.8479 23.933 97.996 23.9965C98.1442 24.0388 98.3134 24.06 98.5039 24.06C98.9483 24.06 99.2763 23.8907 99.4879 23.5521C99.7207 23.1923 99.8371 22.8219 99.8371 22.4409Z" fill="white"/>
<path d="M115.613 19.2663C116.206 20.134 116.851 20.8854 117.55 21.5203C118.269 22.134 119.01 22.5997 119.772 22.9171C120.533 23.2134 121.295 23.3404 122.057 23.2981C122.84 23.2346 123.581 22.97 124.279 22.5044C124.872 22.1023 125.316 21.6261 125.612 21.0758C125.93 20.5256 126.131 19.9224 126.215 19.2663H127.549C127.274 20.0282 126.882 20.7266 126.374 21.3616C125.887 21.9753 125.305 22.515 124.628 22.9806C123.972 23.4251 123.253 23.7743 122.47 24.0283C121.687 24.2822 120.872 24.4092 120.025 24.4092C118.925 24.4092 117.888 24.1976 116.915 23.7743C115.941 23.351 115.084 22.7796 114.343 22.06C113.624 21.3192 113.053 20.4621 112.629 19.4885C112.206 18.5149 111.994 17.4779 111.994 16.3773C111.994 15.2768 112.206 14.2397 112.629 13.2662C113.053 12.2926 113.624 11.446 114.343 10.7265C115.084 9.9857 115.941 9.40368 116.915 8.9804C117.888 8.55711 118.925 8.34546 120.025 8.34546C120.893 8.34546 121.718 8.48303 122.501 8.75816C123.306 9.0333 124.036 9.41426 124.692 9.90104C125.348 10.3667 125.919 10.9275 126.406 11.5836C126.914 12.2397 127.316 12.9487 127.612 13.7106C127.612 13.7318 127.453 13.7424 127.136 13.7424C126.84 13.7424 126.501 13.7424 126.12 13.7424C125.676 13.7424 125.168 13.7318 124.597 13.7106C124.3 12.9699 123.835 12.2714 123.2 11.6154C122.565 10.9381 121.845 10.3984 121.041 9.99628C120.237 9.59415 119.38 9.3931 118.47 9.3931C117.581 9.37194 116.724 9.63649 115.899 10.1868C115.179 10.6524 114.65 11.2344 114.312 11.9328C113.973 12.6101 113.793 13.3508 113.772 14.1551C113.772 14.9382 113.931 15.7742 114.248 16.6631C114.566 17.5308 115.021 18.3985 115.613 19.2663ZM113.232 13.7106V13.044H127.168L127.612 13.7106H113.232Z" fill="white"/>
<path d="M130.715 31.8062V8.44069H133.222V31.2665V31.8062H130.715ZM128.397 9.01214L128.239 8.44069H133.222V10.3137H130.715C130.715 9.69998 130.598 9.2767 130.365 9.04389C130.133 8.81108 129.805 8.69467 129.381 8.69467C129.191 8.69467 129.022 8.72642 128.874 8.78991C128.725 8.83224 128.567 8.90632 128.397 9.01214ZM128.239 31.8062L128.397 31.2347C128.567 31.3406 128.725 31.4146 128.874 31.457C129.022 31.5204 129.191 31.5522 129.381 31.5522C129.572 31.5522 129.752 31.5204 129.921 31.457C130.09 31.3935 130.238 31.2771 130.365 31.1078C130.471 30.9808 130.556 30.822 130.619 30.6315C130.683 30.4411 130.715 30.2083 130.715 29.9331C130.715 29.6368 130.831 29.5098 131.064 29.5522C131.318 29.5945 131.614 29.6686 131.953 29.7744C132.312 29.6686 132.609 29.5945 132.841 29.5522C133.095 29.5098 133.222 29.6368 133.222 29.9331C133.222 30.5257 133.349 30.9384 133.603 31.1712C133.878 31.4252 134.196 31.5522 134.556 31.5522C134.746 31.5522 134.915 31.5204 135.063 31.457C135.212 31.4146 135.37 31.3406 135.54 31.2347L135.698 31.8062H128.239ZM139.031 8.34546C141.55 8.34546 143.38 9.05448 144.523 10.4725C145.687 11.8905 146.269 13.8588 146.269 16.3773C146.269 18.8959 145.623 20.8642 144.332 22.2822C143.063 23.7002 141.275 24.4092 138.968 24.4092C137.889 24.4092 136.947 24.2187 136.143 23.8378C135.36 23.4357 134.704 22.8854 134.175 22.187C133.667 21.4885 133.286 20.6526 133.032 19.679C132.799 18.6843 132.683 17.5837 132.683 16.3773C132.683 15.2345 132.81 14.1762 133.064 13.2027C133.339 12.208 133.73 11.3508 134.238 10.6312C134.767 9.91163 135.423 9.35077 136.206 8.94865C137.01 8.54653 137.952 8.34546 139.031 8.34546ZM138.682 8.91691C137.793 8.91691 137.01 9.10738 136.333 9.48834C135.656 9.8693 135.085 10.3984 134.619 11.0757C134.175 11.7318 133.825 12.5148 133.572 13.4249C133.339 14.335 133.222 15.3191 133.222 16.3773C133.222 17.626 133.36 18.716 133.635 19.6472C133.91 20.5785 134.28 21.3616 134.746 21.9965C135.233 22.6103 135.794 23.0759 136.428 23.3933C137.084 23.6896 137.793 23.8378 138.555 23.8378C139.381 23.8378 140.1 23.6261 140.714 23.2029C141.327 22.7796 141.825 22.2187 142.206 21.5203C142.608 20.8219 142.904 20.0282 143.094 19.1393C143.306 18.2504 143.423 17.3297 143.444 16.3773C143.465 15.3826 143.38 14.4408 143.19 13.5519C143.02 12.6418 142.745 11.8482 142.364 11.1709C141.983 10.4725 141.486 9.92221 140.872 9.52008C140.259 9.11796 139.529 8.91691 138.682 8.91691Z" fill="white"/>
<path d="M150.52 19.2663C151.113 20.134 151.758 20.8854 152.457 21.5203C153.176 22.134 153.917 22.5997 154.679 22.9171C155.441 23.2134 156.202 23.3404 156.964 23.2981C157.747 23.2346 158.488 22.97 159.186 22.5044C159.779 22.1023 160.223 21.6261 160.52 21.0758C160.837 20.5256 161.038 19.9224 161.123 19.2663H162.456C162.181 20.0282 161.789 20.7266 161.281 21.3616C160.795 21.9753 160.213 22.515 159.535 22.9806C158.879 23.4251 158.16 23.7743 157.377 24.0283C156.594 24.2822 155.779 24.4092 154.933 24.4092C153.832 24.4092 152.795 24.1976 151.822 23.7743C150.848 23.351 149.991 22.7796 149.251 22.06C148.531 21.3192 147.96 20.4621 147.537 19.4885C147.113 18.5149 146.902 17.4779 146.902 16.3773C146.902 15.2768 147.113 14.2397 147.537 13.2662C147.96 12.2926 148.531 11.446 149.251 10.7265C149.991 9.9857 150.848 9.40368 151.822 8.9804C152.795 8.55711 153.832 8.34546 154.933 8.34546C155.8 8.34546 156.626 8.48303 157.409 8.75816C158.213 9.0333 158.943 9.41426 159.599 9.90104C160.255 10.3667 160.826 10.9275 161.313 11.5836C161.821 12.2397 162.223 12.9487 162.519 13.7106C162.519 13.7318 162.361 13.7424 162.043 13.7424C161.747 13.7424 161.408 13.7424 161.027 13.7424C160.583 13.7424 160.075 13.7318 159.504 13.7106C159.207 12.9699 158.742 12.2714 158.107 11.6154C157.472 10.9381 156.753 10.3984 155.949 9.99628C155.144 9.59415 154.287 9.3931 153.377 9.3931C152.488 9.37194 151.631 9.63649 150.806 10.1868C150.087 10.6524 149.558 11.2344 149.219 11.9328C148.88 12.6101 148.7 13.3508 148.679 14.1551C148.679 14.9382 148.838 15.7742 149.155 16.6631C149.473 17.5308 149.928 18.3985 150.52 19.2663ZM148.14 13.7106V13.044H162.075L162.519 13.7106H148.14Z" fill="white"/>
<path d="M174.606 19.5202C174.564 18.081 174.384 17.0758 174.066 16.5043C173.749 15.9117 173.305 15.6154 172.733 15.6154L172.701 15.044C173.082 15.044 173.516 15.1392 174.003 15.3297C174.511 15.499 174.987 15.7636 175.431 16.1234C175.876 16.462 176.257 16.8958 176.574 17.425C176.913 17.9329 177.103 18.5255 177.145 19.2028C177.145 20.8959 176.468 22.1764 175.114 23.0441C173.781 23.8907 171.992 24.314 169.749 24.314H168.13C168.13 24.314 168.12 24.2611 168.099 24.1552C168.099 24.0282 168.088 23.8907 168.067 23.7425C168.046 23.5732 168.035 23.4251 168.035 23.2981C168.035 23.1499 168.067 23.0441 168.13 22.9806C168.13 23.4039 168.268 23.6684 168.543 23.7743C168.818 23.8801 169.072 23.933 169.305 23.933C170.448 23.933 171.368 23.8166 172.067 23.5838C172.765 23.351 173.305 23.0335 173.685 22.6314C174.066 22.2293 174.31 21.7637 174.416 21.2346C174.543 20.6843 174.606 20.1128 174.606 19.5202ZM174.543 12.2185C174.543 12.8535 174.416 13.3931 174.162 13.8376C173.908 14.282 173.643 14.7159 173.368 15.1392C173.347 15.1815 173.305 15.2027 173.241 15.2027C173.178 15.1815 173.114 15.1604 173.051 15.1392C172.966 15.118 172.881 15.0863 172.797 15.044C173.093 14.6842 173.347 14.282 173.558 13.8376C173.77 13.3931 173.876 12.8535 173.876 12.2185C173.876 10.991 173.453 10.1232 172.606 9.6153C171.781 9.10735 170.744 8.85339 169.495 8.85339C169.009 8.85339 168.659 8.92746 168.448 9.07561C168.236 9.2026 168.13 9.50948 168.13 9.99626C168.088 9.69996 168.056 9.4354 168.035 9.20259C168.035 9.01211 168.025 8.8428 168.003 8.69465C168.003 8.52534 168.014 8.44067 168.035 8.44067H169.813C170.236 8.44067 170.712 8.49359 171.241 8.59942C171.791 8.70524 172.31 8.90629 172.797 9.20259C173.283 9.47773 173.696 9.85869 174.035 10.3455C174.373 10.8323 174.543 11.4566 174.543 12.2185ZM172.797 15.044L172.86 15.6154C172.585 15.6154 172.268 15.6472 171.908 15.7106C171.548 15.753 171.22 15.8694 170.924 16.0599C170.628 16.2292 170.395 16.4937 170.225 16.8535C170.077 17.2133 170.056 17.7001 170.162 18.3139C170.183 18.4197 170.215 18.5678 170.257 18.7583C170.321 18.9488 170.384 19.1393 170.448 19.3298C170.511 19.5202 170.575 19.7107 170.638 19.9012C170.723 20.0705 170.807 20.1975 170.892 20.2821L170.384 20.5044L169.146 15.044H172.797ZM165.623 24.314V8.44067H168.13V23.7743V24.314H165.623ZM163.305 9.01212L163.147 8.44067H166.384V10.3137H165.623C165.623 9.80578 165.506 9.41424 165.273 9.1391C165.041 8.8428 164.713 8.69465 164.289 8.69465C164.099 8.69465 163.93 8.72639 163.782 8.78989C163.633 8.83222 163.475 8.9063 163.305 9.01212ZM163.147 24.314L163.305 23.7425C163.475 23.8483 163.633 23.933 163.782 23.9965C163.93 24.0388 164.099 24.06 164.289 24.06C164.734 24.06 165.062 23.8907 165.273 23.5521C165.506 23.1923 165.623 22.8219 165.623 22.4409H168.13V24.314H163.147ZM163.305 9.01212L163.147 8.44067H166.384V10.3137H165.623C165.623 9.80578 165.506 9.41424 165.273 9.1391C165.041 8.8428 164.713 8.69465 164.289 8.69465C164.099 8.69465 163.93 8.72639 163.782 8.78989C163.633 8.83222 163.475 8.9063 163.305 9.01212ZM165.623 22.4409L163.147 24.314L163.305 23.7425C163.475 23.8483 163.633 23.933 163.782 23.9965C163.93 24.0388 164.099 24.06 164.289 24.06C164.734 24.06 165.062 23.8907 165.273 23.5521C165.506 23.1923 165.623 22.8219 165.623 22.4409ZM163.305 9.01212L163.147 8.44067H166.384V10.3137H165.623C165.623 9.80578 165.506 9.41424 165.273 9.1391C165.041 8.8428 164.713 8.69465 164.289 8.69465C164.099 8.69465 163.93 8.72639 163.782 8.78989C163.633 8.83222 163.475 8.9063 163.305 9.01212ZM165.623 22.4409L163.147 24.314L163.305 23.7425C163.475 23.8483 163.633 23.933 163.782 23.9965C163.93 24.0388 164.099 24.06 164.289 24.06C164.734 24.06 165.062 23.8907 165.273 23.5521C165.506 23.1923 165.623 22.8219 165.623 22.4409ZM163.305 9.01212L163.147 8.44067H166.384V10.3137H165.623C165.623 9.80578 165.506 9.41424 165.273 9.1391C165.041 8.8428 164.713 8.69465 164.289 8.69465C164.099 8.69465 163.93 8.72639 163.782 8.78989C163.633 8.83222 163.475 8.9063 163.305 9.01212ZM165.623 22.4409L163.147 24.314L163.305 23.7425C163.475 23.8483 163.633 23.933 163.782 23.9965C163.93 24.0388 164.099 24.06 164.289 24.06C164.734 24.06 165.062 23.8907 165.273 23.5521C165.506 23.1923 165.623 22.8219 165.623 22.4409Z" fill="white"/>
<path d="M185.239 11.3612H182.731C183.049 10.3453 183.599 9.57278 184.382 9.04367C185.186 8.4934 186.096 8.21826 187.112 8.21826C187.874 8.21826 188.53 8.39815 189.08 8.75795C189.63 9.11774 190.085 9.57279 190.445 10.1231C190.804 10.6522 191.069 11.2448 191.238 11.9009C191.408 12.5358 191.492 13.1284 191.492 13.6787C191.492 13.8057 191.355 13.9856 191.08 14.2184C190.826 14.43 190.54 14.5887 190.223 14.6946C189.926 14.8004 189.641 14.7898 189.365 14.6628C189.112 14.5358 188.985 14.1866 188.985 13.6152C188.985 13.0437 188.974 12.4829 188.953 11.9326C188.932 11.3612 188.858 10.8532 188.731 10.4088C188.604 9.96431 188.413 9.60453 188.159 9.32939C187.905 9.03309 187.556 8.88494 187.112 8.88494C186.731 8.88494 186.413 8.95901 186.159 9.10716C185.927 9.25531 185.736 9.45638 185.588 9.71035C185.461 9.94316 185.366 10.2077 185.302 10.504C185.26 10.8003 185.239 11.086 185.239 11.3612ZM190.223 24.3455L190.096 22.2502C190.455 22.1444 190.783 22.0704 191.08 22.028C191.376 21.9857 191.524 22.1127 191.524 22.409C191.524 22.9381 191.64 23.3508 191.873 23.6471C192.106 23.9434 192.434 24.0915 192.857 24.0915C193.069 24.0915 193.249 24.0598 193.397 23.9963C193.545 23.9328 193.704 23.8482 193.873 23.7423L194 24.3455H190.223ZM189.016 24.3455V24.1233L188.985 13.6152L191.492 13.6787L191.524 23.7741V24.3455H189.016ZM177.779 18.4089C177.779 17.5835 177.927 16.811 178.224 16.0914C178.541 15.3718 178.964 14.7475 179.493 14.2184C180.044 13.6681 180.678 13.2448 181.398 12.9485C182.117 12.631 182.89 12.4723 183.715 12.4723C184.54 12.4723 185.313 12.631 186.032 12.9485C186.752 13.2448 187.376 13.6681 187.905 14.2184C188.455 14.7475 188.879 15.3718 189.175 16.0914C189.492 16.811 189.651 17.5835 189.651 18.4089C189.651 19.2343 189.492 20.0068 189.175 20.7264C188.879 21.446 188.455 22.0809 187.905 22.6312C187.376 23.1603 186.752 23.5836 186.032 23.9011C185.313 24.1974 184.54 24.3455 183.715 24.3455C182.89 24.3455 182.117 24.1974 181.398 23.9011C180.678 23.5836 180.044 23.1603 179.493 22.6312C178.964 22.0809 178.541 21.446 178.224 20.7264C177.927 20.0068 177.779 19.2343 177.779 18.4089ZM180.287 18.3772C180.287 18.9698 180.393 19.5412 180.604 20.0915C180.837 20.6206 181.155 21.0862 181.557 21.4883C181.959 21.8693 182.424 22.1762 182.953 22.409C183.482 22.6418 184.043 22.7582 184.636 22.7582C185.249 22.7582 185.81 22.6418 186.318 22.409C186.847 22.1762 187.313 21.8693 187.715 21.4883C188.117 21.0862 188.424 20.6206 188.635 20.0915C188.868 19.5412 188.985 18.9698 188.985 18.3772C188.985 17.7846 188.868 17.2237 188.635 16.6946C188.424 16.1655 188.117 15.7105 187.715 15.3295C187.313 14.9274 186.847 14.6205 186.318 14.4088C185.81 14.176 185.249 14.0596 184.636 14.0596C184.043 14.0596 183.482 14.176 182.953 14.4088C182.424 14.6205 181.959 14.9274 181.557 15.3295C181.155 15.7105 180.837 16.1655 180.604 16.6946C180.393 17.2237 180.287 17.7846 180.287 18.3772Z" fill="white"/>
<g opacity="0.5">
<path d="M3.892 31.8062H5.376L9.24 41.7462H7.588L6.538 39.0442H2.702L1.666 41.7462H0L3.892 31.8062ZM6.23 37.8822L4.634 33.5282L2.982 37.8822H6.23Z" fill="white"/>
<path d="M9.57327 43.4962V40.3882H9.74127C9.93727 40.3882 10.1193 40.3322 10.2873 40.2202C10.4553 40.1082 10.6046 39.9168 10.7353 39.6462C10.8659 39.3662 10.9733 38.9835 11.0573 38.4982C11.1413 38.0035 11.1926 37.3828 11.2113 36.6362L11.2953 34.4242H16.5173V40.3882H17.5253V43.4962H16.1673V41.7462H10.9173V43.4962H9.57327ZM11.7713 40.3882H14.9773V35.7542H12.6533L12.6113 36.7762C12.5833 37.4855 12.5319 38.0828 12.4573 38.5682C12.3919 39.0535 12.2986 39.4408 12.1773 39.7302C12.0653 40.0195 11.9299 40.2388 11.7713 40.3882Z" fill="white"/>
<path d="M18.8319 41.7462V34.4242H22.7519C23.2185 34.4242 23.6012 34.5128 23.8999 34.6902C24.2079 34.8582 24.4365 35.0775 24.5859 35.3482C24.7352 35.6095 24.8099 35.8988 24.8099 36.2162C24.8099 36.6175 24.7165 36.9722 24.5299 37.2802C24.3432 37.5882 24.0679 37.8215 23.7039 37.9802C24.1239 38.1015 24.4645 38.3162 24.7259 38.6242C24.9965 38.9228 25.1319 39.3102 25.1319 39.7862C25.1319 40.2155 25.0292 40.5795 24.8239 40.8782C24.6185 41.1675 24.3245 41.3868 23.9419 41.5362C23.5685 41.6762 23.1299 41.7462 22.6259 41.7462H18.8319ZM20.2879 40.6822H22.5839C22.7799 40.6822 22.9572 40.6355 23.1159 40.5422C23.2839 40.4395 23.4145 40.3088 23.5079 40.1502C23.6012 39.9822 23.6479 39.8048 23.6479 39.6182C23.6479 39.4128 23.6012 39.2308 23.5079 39.0722C23.4239 38.9135 23.3025 38.7875 23.1439 38.6942C22.9945 38.6008 22.8172 38.5542 22.6119 38.5542H20.2879V40.6822ZM20.2879 37.5602H22.3599C22.5559 37.5602 22.7285 37.5135 22.8779 37.4202C23.0272 37.3175 23.1439 37.1822 23.2279 37.0142C23.3119 36.8462 23.3539 36.6688 23.3539 36.4822C23.3539 36.2115 23.2652 35.9782 23.0879 35.7822C22.9105 35.5862 22.6772 35.4882 22.3879 35.4882H20.2879V37.5602Z" fill="white"/>
<path d="M29.8875 41.8862C29.3088 41.8862 28.7908 41.7882 28.3335 41.5922C27.8762 41.3868 27.4795 41.1068 27.1435 40.7522C26.8168 40.3975 26.5648 39.9962 26.3875 39.5482C26.2102 39.0908 26.1215 38.6055 26.1215 38.0922C26.1215 37.5788 26.2102 37.0935 26.3875 36.6362C26.5648 36.1788 26.8168 35.7775 27.1435 35.4322C27.4795 35.0775 27.8762 34.8022 28.3335 34.6062C28.8002 34.4008 29.3182 34.2982 29.8875 34.2982C30.4568 34.2982 30.9702 34.4008 31.4275 34.6062C31.8942 34.8022 32.2908 35.0775 32.6175 35.4322C32.9535 35.7775 33.2102 36.1788 33.3875 36.6362C33.5648 37.0935 33.6535 37.5788 33.6535 38.0922C33.6535 38.6055 33.5648 39.0908 33.3875 39.5482C33.2102 39.9962 32.9535 40.3975 32.6175 40.7522C32.2908 41.1068 31.8942 41.3868 31.4275 41.5922C30.9702 41.7882 30.4568 41.8862 29.8875 41.8862ZM27.7035 38.1062C27.7035 38.5728 27.8015 38.9928 27.9975 39.3662C28.1935 39.7395 28.4548 40.0335 28.7815 40.2482C29.1082 40.4628 29.4768 40.5702 29.8875 40.5702C30.2888 40.5702 30.6528 40.4628 30.9795 40.2482C31.3155 40.0242 31.5815 39.7255 31.7775 39.3522C31.9735 38.9695 32.0715 38.5495 32.0715 38.0922C32.0715 37.6255 31.9735 37.2055 31.7775 36.8322C31.5815 36.4588 31.3155 36.1648 30.9795 35.9502C30.6528 35.7262 30.2888 35.6142 29.8875 35.6142C29.4768 35.6142 29.1082 35.7262 28.7815 35.9502C28.4548 36.1742 28.1935 36.4728 27.9975 36.8462C27.8015 37.2102 27.7035 37.6302 27.7035 38.1062Z" fill="white"/>
<path d="M35.0194 41.7462V34.4242H36.5454V37.3222H37.2734L39.4294 34.4242H41.1374L38.4634 37.9662L41.4454 41.7462H39.6674L37.2594 38.7082H36.5454V41.7462H35.0194Z" fill="white"/>
<path d="M42.0616 39.6042C42.0616 39.1375 42.1922 38.7315 42.4536 38.3862C42.7242 38.0315 43.0929 37.7608 43.5596 37.5742C44.0262 37.3782 44.5676 37.2802 45.1836 37.2802C45.5102 37.2802 45.8416 37.3035 46.1776 37.3502C46.5229 37.3968 46.8262 37.4715 47.0876 37.5742V37.1122C47.0876 36.5988 46.9336 36.1975 46.6256 35.9082C46.3176 35.6188 45.8742 35.4742 45.2956 35.4742C44.8849 35.4742 44.4976 35.5488 44.1336 35.6982C43.7696 35.8382 43.3822 36.0388 42.9716 36.3002L42.4536 35.2642C42.9389 34.9375 43.4242 34.6948 43.9096 34.5362C44.4042 34.3775 44.9222 34.2982 45.4636 34.2982C46.4436 34.2982 47.2136 34.5595 47.7736 35.0822C48.3429 35.5955 48.6276 36.3282 48.6276 37.2802V40.0102C48.6276 40.1875 48.6556 40.3135 48.7116 40.3882C48.7769 40.4628 48.8842 40.5048 49.0336 40.5142V41.7462C48.8936 41.7742 48.7676 41.7928 48.6556 41.8022C48.5436 41.8115 48.4502 41.8162 48.3756 41.8162C48.0489 41.8162 47.8016 41.7368 47.6336 41.5782C47.4656 41.4195 47.3676 41.2328 47.3396 41.0182L47.2976 40.5982C46.9802 41.0088 46.5742 41.3262 46.0796 41.5502C45.5849 41.7742 45.0856 41.8862 44.5816 41.8862C44.0962 41.8862 43.6622 41.7882 43.2796 41.5922C42.8969 41.3868 42.5982 41.1115 42.3836 40.7662C42.1689 40.4208 42.0616 40.0335 42.0616 39.6042ZM46.7236 40.0522C46.8356 39.9308 46.9242 39.8095 46.9896 39.6882C47.0549 39.5668 47.0876 39.4595 47.0876 39.3662V38.5262C46.8262 38.4235 46.5509 38.3488 46.2616 38.3022C45.9722 38.2462 45.6876 38.2182 45.4076 38.2182C44.8476 38.2182 44.3902 38.3302 44.0356 38.5542C43.6902 38.7782 43.5176 39.0862 43.5176 39.4782C43.5176 39.6928 43.5736 39.8982 43.6856 40.0942C43.8069 40.2902 43.9749 40.4488 44.1896 40.5702C44.4136 40.6915 44.6889 40.7522 45.0156 40.7522C45.3516 40.7522 45.6736 40.6868 45.9816 40.5562C46.2896 40.4255 46.5369 40.2575 46.7236 40.0522Z" fill="white"/>
<path d="M52.1499 41.7462V35.7822H49.7279V34.4242H56.1259V35.7822H53.6899V41.7462H52.1499Z" fill="white"/>
</g>
</svg>
