<svg width="22" height="13" viewBox="0 0 22 13" fill="none" xmlns="http://www.w3.org/2000/svg">
<path d="M20.503 12.3811H18.222C17.359 12.3811 17.099 11.6821 15.552 10.1341C14.2 8.83109 13.629 8.66909 13.287 8.66909C12.814 8.66909 12.685 8.79909 12.685 9.45009V11.5021C12.685 12.0571 12.505 12.3821 11.055 12.3821C9.64829 12.2876 8.28416 11.8602 7.07497 11.1352C5.86578 10.4103 4.84612 9.40836 4.1 8.21209C2.32839 6.00711 1.09571 3.41917 0.5 0.654089C0.5 0.312089 0.63 0.00208923 1.282 0.00208923H3.562C4.148 0.00208923 4.359 0.26309 4.589 0.86609C5.696 4.12409 7.585 6.95809 8.352 6.95809C8.646 6.95809 8.774 6.82809 8.774 6.09509V2.73909C8.677 1.20809 7.864 1.07909 7.864 0.52509C7.87428 0.37893 7.94114 0.242538 8.05037 0.144882C8.15961 0.047227 8.30261 -0.00399758 8.449 0.00208923H12.033C12.523 0.00208923 12.685 0.246089 12.685 0.832089V5.36209C12.685 5.85109 12.895 6.01309 13.043 6.01309C13.337 6.01309 13.563 5.85109 14.102 5.31309C15.2574 3.90408 16.2013 2.33426 16.904 0.653089C16.9759 0.451243 17.1119 0.278464 17.2912 0.161106C17.4705 0.043749 17.6832 -0.011745 17.897 0.00308916H20.178C20.862 0.00308916 21.007 0.34509 20.862 0.83309C20.0324 2.69151 19.0058 4.45559 17.8 6.09509C17.554 6.47009 17.456 6.66509 17.8 7.10509C18.026 7.44709 18.826 8.11509 19.363 8.75009C20.145 9.53009 20.794 10.4321 21.285 11.4201C21.481 12.0561 21.154 12.3811 20.503 12.3811Z" fill="#1873D3"/>
</svg>
