<svg width="20" height="20" viewBox="0 0 20 20" fill="none" xmlns="http://www.w3.org/2000/svg">
<path d="M18.162 4.84024C15.282 0.400244 9.40199 -0.919756 4.84199 1.84024C0.401994 4.60024 -1.03801 10.6002 1.84199 15.0402L2.08199 15.4002L1.12199 19.0002L4.72199 18.0402L5.08199 18.2802C6.64199 19.1202 8.32199 19.6002 10.002 19.6002C11.802 19.6002 13.602 19.1202 15.162 18.1602C19.602 15.2802 20.922 9.40024 18.162 4.84024ZM15.642 14.0802C15.162 14.8002 14.562 15.2802 13.722 15.4002C13.242 15.4002 12.642 15.6402 10.242 14.6802C8.20199 13.7202 6.52199 12.1602 5.32199 10.3602C4.60199 9.52024 4.24199 8.44024 4.12199 7.36024C4.12199 6.40024 4.48199 5.56024 5.08199 4.96024C5.32199 4.72024 5.56199 4.60024 5.80199 4.60024H6.40199C6.64199 4.60024 6.88199 4.60024 7.00199 5.08024C7.24199 5.68024 7.84199 7.12024 7.84199 7.24024C7.96199 7.36024 7.96199 7.60024 7.84199 7.72024C7.96199 7.96025 7.84199 8.20024 7.72199 8.32024C7.60199 8.44024 7.48199 8.68024 7.36199 8.80024C7.12199 8.92024 7.00199 9.16024 7.12199 9.40024C7.60199 10.1202 8.20199 10.8402 8.80199 11.4402C9.52199 12.0402 10.242 12.5202 11.082 12.8802C11.322 13.0002 11.562 13.0002 11.682 12.7602C11.802 12.5202 12.402 11.9202 12.642 11.6802C12.882 11.4402 13.002 11.4402 13.242 11.5602L15.162 12.5202C15.402 12.6402 15.642 12.7602 15.762 12.8802C15.882 13.2402 15.882 13.7202 15.642 14.0802Z" fill="#3BB047"/>
</svg>
