<svg width="42" height="42" viewBox="0 0 42 42" fill="none" xmlns="http://www.w3.org/2000/svg">
<g clip-path="url(#clip0_93_128)">
<path d="M35 20.9999C36.232 20.9819 37.4085 20.4844 38.2798 19.6131C39.1511 18.7418 39.6486 17.5653 39.6666 16.3333V6.99994H28V5.16828C27.9984 4.79445 27.9233 4.42458 27.7788 4.07979C27.6344 3.735 27.4234 3.42204 27.158 3.15879C26.8925 2.89553 26.5779 2.68714 26.2319 2.54549C25.8859 2.40385 25.5155 2.33174 25.1416 2.33328H16.8583C16.4845 2.33174 16.114 2.40385 15.768 2.54549C15.4221 2.68714 15.1074 2.89553 14.842 3.15879C14.5766 3.42204 14.3656 3.735 14.2211 4.07979C14.0767 4.42458 14.0015 4.79445 14 5.16828V6.99994H2.33331V16.3333C2.35167 17.5753 2.8572 18.7605 3.741 19.6334C4.6248 20.5062 5.81613 20.997 7.05831 20.9999H11.725V18.5733H14.0583V25.2233C14.0583 25.5327 13.9354 25.8294 13.7166 26.0482C13.4978 26.267 13.2011 26.3899 12.8916 26.3899C12.5822 26.3899 12.2855 26.267 12.0667 26.0482C11.8479 25.8294 11.725 25.5327 11.725 25.2233V23.4033H7.06998C5.31873 23.4004 3.63086 22.7477 2.33331 21.5716V32.5966C2.33331 33.2155 2.57915 33.8089 3.01673 34.2465C3.45432 34.6841 4.04781 34.9299 4.66665 34.9299H37.3333C37.9522 34.9299 38.5456 34.6841 38.9832 34.2465C39.4208 33.8089 39.6666 33.2155 39.6666 32.5966V21.5716C38.3727 22.7536 36.6825 23.4072 34.93 23.4033H32.6666V20.9999H35ZM16.3333 5.16828C16.3393 5.03312 16.3973 4.9055 16.4951 4.81204C16.5929 4.71857 16.723 4.66648 16.8583 4.66661H25.1416C25.2769 4.66648 25.4071 4.71857 25.5049 4.81204C25.6027 4.9055 25.6606 5.03312 25.6666 5.16828V6.99994H16.3333V5.16828ZM30.3333 25.2233C30.3333 25.5327 30.2104 25.8294 29.9916 26.0482C29.7728 26.267 29.4761 26.3899 29.1666 26.3899C28.8572 26.3899 28.5605 26.267 28.3417 26.0482C28.1229 25.8294 28 25.5327 28 25.2233V23.4033H16.3333V20.9999H28V18.5733H30.3333V25.2233Z" fill="url(#paint0_linear_93_128)"/>
</g>
<defs>
<linearGradient id="paint0_linear_93_128" x1="21" y1="2.33325" x2="21" y2="34.9299" gradientUnits="userSpaceOnUse">
<stop stop-color="#8770C1"/>
<stop offset="1" stop-color="#513F7F"/>
</linearGradient>
<clipPath id="clip0_93_128">
<rect width="42" height="42" fill="white"/>
</clipPath>
</defs>
</svg>
