<svg width="43" height="42" viewBox="0 0 43 42" fill="none" xmlns="http://www.w3.org/2000/svg">
<path d="M16.25 36.75H26.75M32 17.0625V19.6875C32 25.4625 27.275 30.1875 21.5 30.1875M21.5 30.1875C15.725 30.1875 11 25.4625 11 19.6875V17.0625M21.5 30.1875V36.75" stroke="url(#paint0_linear_93_133)" stroke-width="1.5" stroke-miterlimit="10" stroke-linecap="square"/>
<path d="M21.5 26.25C20.6338 26.248 19.7768 26.072 18.9799 25.7324C18.183 25.3928 17.4625 24.8965 16.8611 24.2731C15.63 23.0315 14.9387 21.3541 14.9375 19.6055V10.5C14.9341 9.63731 15.1016 8.78243 15.4302 7.98472C15.7588 7.187 16.242 6.46222 16.8521 5.85216C17.4622 5.24211 18.1869 4.75885 18.9847 4.43024C19.7824 4.10164 20.6372 3.93419 21.5 3.93755C25.1799 3.93755 28.0625 6.82013 28.0625 10.5V19.6055C28.0625 23.269 25.1184 26.25 21.5 26.25Z" fill="url(#paint1_linear_93_133)"/>
<defs>
<linearGradient id="paint0_linear_93_133" x1="21.5" y1="17.0625" x2="21.5" y2="36.75" gradientUnits="userSpaceOnUse">
<stop stop-color="#8770C1"/>
<stop offset="1" stop-color="#513F7F"/>
</linearGradient>
<linearGradient id="paint1_linear_93_133" x1="21.5" y1="3.9375" x2="21.5" y2="26.25" gradientUnits="userSpaceOnUse">
<stop stop-color="#8770C1"/>
<stop offset="1" stop-color="#513F7F"/>
</linearGradient>
</defs>
</svg>
