<svg width="42" height="42" viewBox="0 0 42 42" fill="none" xmlns="http://www.w3.org/2000/svg">
<path d="M15.75 35C15.75 36.925 14.175 38.5 12.25 38.5C10.325 38.5 8.7675 36.925 8.7675 35C8.7675 33.075 10.325 31.5 12.25 31.5C14.175 31.5 15.75 33.075 15.75 35ZM29.75 31.5C27.825 31.5 26.2675 33.075 26.2675 35C26.2675 36.925 27.825 38.5 29.75 38.5C31.675 38.5 33.25 36.925 33.25 35C33.25 33.075 31.675 31.5 29.75 31.5ZM30.443 22.75C31.2392 22.7499 32.0115 22.4783 32.6326 21.98C33.2536 21.4818 33.6862 20.7867 33.859 20.0095L36.75 8.75H12.25V7C12.25 6.07174 11.8813 5.1815 11.2249 4.52513C10.5685 3.86875 9.67826 3.5 8.75 3.5H5.25V7H8.75V26.25C8.75 27.1783 9.11875 28.0685 9.77513 28.7249C10.4315 29.3813 11.3217 29.75 12.25 29.75H33.25C33.25 28.8217 32.8813 27.9315 32.2249 27.2751C31.5685 26.6187 30.6783 26.25 29.75 26.25H12.25V22.75H30.443Z" fill="url(#paint0_linear_93_142)"/>
<defs>
<linearGradient id="paint0_linear_93_142" x1="21" y1="3.5" x2="21" y2="38.5" gradientUnits="userSpaceOnUse">
<stop stop-color="#8770C1"/>
<stop offset="1" stop-color="#513F7F"/>
</linearGradient>
</defs>
</svg>
